<svg xmlns="http://www.w3.org/2000/svg" width="1200" height="400" font-family="system-ui, -apple-system, Segoe UI, Roboto, sans-serif" viewBox="0 0 1200 400"><defs><linearGradient id="bg" x1="0%" x2="100%" y1="0%" y2="100%"><stop offset="0%" stop-color="#0b1024"/><stop offset="48%" stop-color="#1a1640"/><stop offset="100%" stop-color="#0a0e20"/></linearGradient><radialGradient id="glowIndigo" cx="50%" cy="50%" r="50%"><stop offset="0%" stop-color="#6366f1" stop-opacity=".55"/><stop offset="100%" stop-color="#6366f1" stop-opacity="0"/></radialGradient><radialGradient id="glowCyan" cx="50%" cy="50%" r="50%"><stop offset="0%" stop-color="#22d3ee" stop-opacity=".4"/><stop offset="100%" stop-color="#22d3ee" stop-opacity="0"/></radialGradient><linearGradient id="cubeTop" x1="0%" x2="100%" y1="0%" y2="100%"><stop offset="0%" stop-color="#a5b4fc"/><stop offset="100%" stop-color="#6366f1"/></linearGradient><linearGradient id="cubeLeft" x1="0%" x2="0%" y1="0%" y2="100%"><stop offset="0%" stop-color="#4f46e5"/><stop offset="100%" stop-color="#3730a3"/></linearGradient><linearGradient id="cubeRight" x1="0%" x2="0%" y1="0%" y2="100%"><stop offset="0%" stop-color="#312e81"/><stop offset="100%" stop-color="#1e1b4b"/></linearGradient><linearGradient id="title" x1="0%" x2="100%" y1="0%" y2="0%"><stop offset="0%" stop-color="#fff"/><stop offset="60%" stop-color="#c7d2fe"/><stop offset="100%" stop-color="#67e8f9"/></linearGradient><linearGradient id="node" x1="0%" x2="100%" y1="0%" y2="100%"><stop offset="0%" stop-color="#67e8f9"/><stop offset="100%" stop-color="#a5b4fc"/></linearGradient><filter id="soft" width="220%" height="220%" x="-60%" y="-60%"><feGaussianBlur result="b" stdDeviation="6"/><feMerge><feMergeNode in="b"/><feMergeNode in="SourceGraphic"/></feMerge></filter><pattern id="dots" width="32" height="32" patternUnits="userSpaceOnUse"><circle cx="2" cy="2" r="1" fill="#fff" opacity=".05"/></pattern></defs><rect width="1200" height="400" fill="url(#bg)"/><rect width="1200" height="400" fill="url(#dots)"/><ellipse cx="180" cy="120" fill="url(#glowIndigo)" rx="420" ry="300"/><ellipse cx="1020" cy="320" fill="url(#glowCyan)" rx="420" ry="300"/><rect width="1200" height="400" fill="none" stroke="#fff" stroke-opacity=".06" stroke-width="2"/><g transform="translate(150,200)"><circle cx="0" cy="0" r="84" fill="url(#glowIndigo)" opacity=".9"/><g filter="url(#soft)"><polygon fill="url(#cubeTop)" points="0 -66 62 -30 0 6 -62 -30"/><polygon fill="url(#cubeLeft)" points="-62 -30 0 6 0 72 -62 36"/><polygon fill="url(#cubeRight)" points="62 -30 0 6 0 72 62 36"/></g><polyline fill="none" stroke="#c7d2fe" stroke-width="1.5" points="-62 -30 0 6 62 -30" opacity=".5"/><line x1="0" x2="0" y1="6" y2="72" stroke="#c7d2fe" stroke-width="1.5" opacity=".35"/><g><line x1="-30" x2="2" y1="-36" y2="-22" stroke="url(#node)" stroke-width="1.6" opacity=".55"/><line x1="2" x2="34" y1="-22" y2="-36" stroke="url(#node)" stroke-width="1.6" opacity=".45"/><line x1="-30" x2="0" y1="-36" y2="-50" stroke="url(#node)" stroke-width="1.6" opacity=".4"/><line x1="34" x2="0" y1="-36" y2="-50" stroke="url(#node)" stroke-width="1.6" opacity=".35"/><circle cx="0" cy="-50" r="4.5" fill="url(#node)"/><circle cx="-30" cy="-36" r="4.5" fill="url(#node)"/><circle cx="34" cy="-36" r="4.5" fill="url(#node)"/><circle cx="2" cy="-22" r="6" fill="#fff"/><circle cx="2" cy="-22" r="11" fill="none" stroke="#67e8f9" stroke-width="1.5" opacity=".6"/></g></g><text x="300" y="172" fill="url(#title)" font-size="52" font-weight="800" letter-spacing="-.5">BloxForge</text><text x="302" y="208" fill="#aab4d4" font-size="19" font-weight="500">Drive Roblox Studio from Claude Code, Codex, Cursor &amp; AI agents</text><g fill="#c7d2fe" font-size="13" font-weight="600"><g transform="translate(300,236)"><rect width="118" height="26" x="0" y="0" fill="#fff" opacity=".06" rx="13"/><rect width="118" height="26" x="0" y="0" fill="none" stroke="#6366f1" stroke-opacity=".5" rx="13"/><text x="59" y="17" text-anchor="middle">132 tools</text></g><g transform="translate(426,236)"><rect width="150" height="26" x="0" y="0" fill="#fff" opacity=".06" rx="13"/><rect width="150" height="26" x="0" y="0" fill="none" stroke="#6366f1" stroke-opacity=".5" rx="13"/><text x="75" y="17" text-anchor="middle">lazy discovery</text></g><g transform="translate(584,236)"><rect width="190" height="26" x="0" y="0" fill="#fff" opacity=".06" rx="13"/><rect width="190" height="26" x="0" y="0" fill="none" stroke="#22d3ee" stroke-opacity=".45" rx="13"/><text x="95" y="17" text-anchor="middle">runtime episodes + resources</text></g></g><g font-size="13" text-anchor="middle" transform="translate(1018,116)"><g filter="url(#soft)"><rect width="172" height="44" x="-86" y="-6" fill="#2a2f52" rx="10"/></g><text x="0" y="21" fill="#c7d2fe" font-weight="600">AI Agent</text><line x1="0" x2="0" y1="44" y2="66" stroke="#818cf8" stroke-width="2.5"/><polygon fill="#818cf8" points="-6 66 6 66 0 74"/><g filter="url(#soft)"><rect width="172" height="44" x="-86" y="74" fill="#4f46e5" rx="10"/></g><text x="0" y="101" fill="#fff" font-weight="700">MCP Server</text><line x1="0" x2="0" y1="124" y2="146" stroke="#22d3ee" stroke-width="2.5"/><polygon fill="#22d3ee" points="-6 146 6 146 0 154"/><g filter="url(#soft)"><rect width="172" height="44" x="-86" y="154" fill="#22d3ee" rx="10"/></g><text x="0" y="181" fill="#08233a" font-weight="700">Roblox Studio</text></g><text x="600" y="372" fill="#8a93b8" font-size="14" font-weight="500" letter-spacing=".3" text-anchor="middle">Free · Open Source · MIT · Local-first · stdio + HTTP</text></svg>