<svg xmlns="http://www.w3.org/2000/svg" width="512" height="512" viewBox="0 0 512 512"><defs><linearGradient id="bg" x1="0%" x2="100%" y1="0%" y2="100%"><stop offset="0%" style="stop-color:#1a1a2e"/><stop offset="100%" style="stop-color:#16213e"/></linearGradient><linearGradient id="block" x1="0%" x2="100%" y1="0%" y2="100%"><stop offset="0%" style="stop-color:#6366f1"/><stop offset="100%" style="stop-color:#4f46e5"/></linearGradient><linearGradient id="spark" x1="0%" x2="100%" y1="0%" y2="100%"><stop offset="0%" style="stop-color:#22d3ee"/><stop offset="100%" style="stop-color:#818cf8"/></linearGradient></defs><circle cx="256" cy="256" r="248" fill="url(#bg)" stroke="#2a2a4a" stroke-width="4"/><g transform="translate(256,256) rotate(-15) translate(-256,-256)"><rect width="200" height="200" x="156" y="156" fill="url(#block)" opacity=".9" rx="16"/><rect width="160" height="160" x="176" y="176" fill="none" stroke="rgba(255,255,255,0.1)" stroke-width="2" rx="10"/><circle cx="200" cy="200" r="8" fill="url(#spark)" opacity=".8"/><circle cx="256" cy="200" r="8" fill="url(#spark)" opacity=".6"/><circle cx="312" cy="200" r="8" fill="url(#spark)" opacity=".4"/><circle cx="200" cy="256" r="8" fill="url(#spark)" opacity=".6"/><circle cx="256" cy="256" r="10" fill="url(#spark)" opacity="1"/><circle cx="312" cy="256" r="8" fill="url(#spark)" opacity=".5"/><circle cx="200" cy="312" r="8" fill="url(#spark)" opacity=".4"/><circle cx="256" cy="312" r="8" fill="url(#spark)" opacity=".6"/><circle cx="312" cy="312" r="8" fill="url(#spark)" opacity=".8"/><line x1="208" x2="248" y1="200" y2="200" stroke="url(#spark)" stroke-width="2" opacity=".5"/><line x1="264" x2="304" y1="200" y2="200" stroke="url(#spark)" stroke-width="2" opacity=".3"/><line x1="200" x2="200" y1="208" y2="248" stroke="url(#spark)" stroke-width="2" opacity=".5"/><line x1="200" x2="200" y1="264" y2="304" stroke="url(#spark)" stroke-width="2" opacity=".3"/><line x1="312" x2="312" y1="208" y2="248" stroke="url(#spark)" stroke-width="2" opacity=".4"/><line x1="312" x2="312" y1="264" y2="304" stroke="url(#spark)" stroke-width="2" opacity=".3"/><line x1="248" x2="208" y1="312" y2="312" stroke="url(#spark)" stroke-width="2" opacity=".3"/><line x1="264" x2="304" y1="312" y2="312" stroke="url(#spark)" stroke-width="2" opacity=".5"/><circle cx="256" cy="256" r="4" fill="#fff" opacity=".9"/></g><circle cx="256" cy="256" r="220" fill="none" stroke="#22d3ee" stroke-dasharray="8 12" stroke-width="1.5" opacity=".15"/></svg>
